# xmcd CD database file generated by LOLA_Freedb v0.9beta0
# 
# Track frame offsets:
#      150
#      10826
#      25451
#      34052
#      48359
#      59217
#      73002
#      87527
#      98202
#      112011
#      124407
# 
# Disc length: 1839 seconds
# 
# Revision: 0 
# Processed by: cddbd v1.5.1PL2 Copyright (c) Steve Scherf et al.
# Submitted via: LOLA_Freedb v0.9beta0
# 
DISCID=a1072d0b
DTITLE=Dean Martin - The best of
DYEAR=1900
DGENRE=
TTITLE0=Who's your little Who-zis
TTITLE1=I'm yours
TTITLE2=I feel a song comin' on
TTITLE3=Come back to Sorrento
TTITLE4=Oh Marie
TTITLE5=With my eyes wide open I''m dreaming
TTITLE6=Just one more chance
TTITLE7=Louise
TTITLE8=That's amore
TTITLE9=I feel like a feather in the breeze
TTITLE10=When ypu're smiling
EXTD=
EXTT0=
EXTT1=
EXTT2=
EXTT3=
EXTT4=
EXTT5=
EXTT6=
EXTT7=
EXTT8=
EXTT9=
EXTT10=
PLAYORDER=
